<svg id="Layer_1" data-name="Layer 1" xmlns="http://www.w3.org/2000/svg" xmlns:xlink="http://www.w3.org/1999/xlink" viewBox="0 0 450 78.1"><defs><style>.cls-1{fill:#1b1c30;}.cls-2{fill:url(#New_Gradient_Swatch_3);}</style><linearGradient id="New_Gradient_Swatch_3" x1="-17.22" y1="-1.08" x2="59.47" y2="58.46" gradientUnits="userSpaceOnUse"><stop offset="0" stop-color="#8002ef"/><stop offset="1" stop-color="#4ba9ea"/></linearGradient></defs><title>SON_logo_main_</title><path class="cls-1" d="M84.67,47a23.1,23.1,0,0,0,15.21,6.31c5.85,0,8.82-2.13,8.82-5.47,0-3.9-4.73-5.29-10.21-6.5-7.7-1.67-16.88-3.71-16.88-13.73C81.61,20.29,87.92,14,99.23,14a25.62,25.62,0,0,1,17.45,6.31l-4.08,6.87c-2.69-3.06-7.71-5.38-13.27-5.38-5.11,0-8.35,1.85-8.35,5,0,3.43,4.45,4.64,9.74,5.84,7.79,1.67,17.35,3.9,17.35,14.48C118.07,55,111.48,61,99.42,61c-7.61,0-14.57-2.41-19.21-7Z"/><path class="cls-1" d="M123,37.46C123,24.65,131.79,14,146,14c14.38,0,23.1,10.67,23.1,23.48S160.37,61,146,61C131.79,61,123,50.35,123,37.46Zm36,0c0-7.89-4.64-14.85-13-14.85s-12.9,7-12.9,14.85S137.73,52.4,146,52.4,159,45.44,159,37.46Z"/><path class="cls-1" d="M207,31.89c0-7-3.52-9.28-9-9.28a14.74,14.74,0,0,0-11.5,6V59.91h-9.74V15.1h9.74v6.12A21.22,21.22,0,0,1,202.3,14c9.65,0,14.47,5.2,14.47,14.38V59.91H207Z"/><path class="cls-1" d="M255.33,55.09C252,58.89,246.8,61,240.86,61c-7.33,0-15.59-4.91-15.59-14.84,0-10.3,8.26-14.57,15.59-14.57,6,0,11.23,2,14.47,5.75V30.68c0-5.19-4.26-8.35-10.48-8.35A18.38,18.38,0,0,0,231.58,28l-4-6.77A26.65,26.65,0,0,1,246.43,14c9.93,0,18.65,4.18,18.65,16.24V59.91h-9.75Zm0-12.16c-2.22-3.06-6.4-4.64-10.66-4.64-5.48,0-9.56,3.16-9.56,8.07s4.08,8,9.56,8c4.26,0,8.44-1.57,10.66-4.64Z"/><path class="cls-1" d="M279.64,49.52V23.63h-7.42V15.1h7.42V2.85h9.75V15.1h9.09v8.53h-9.09V47.11c0,3.06,1.48,5.29,4.26,5.29A6.3,6.3,0,0,0,298,50.82l2.32,7.33c-1.76,1.67-4.63,2.87-9.18,2.87C283.63,61,279.64,56.94,279.64,49.52Z"/><path class="cls-1" d="M312.55,69.47c3.06,0,5.1-.93,6.4-3.9l2.23-5.1L302.8,15.1h10.4l13.08,33.58L339.36,15.1h10.49L328.23,68c-3.06,7.61-8.45,10-15.4,10.12a27.61,27.61,0,0,1-5.48-.65l1.49-8.73A10,10,0,0,0,312.55,69.47Z"/><path class="cls-1" d="M354.54,77V15.1h9.74v6.12A17.9,17.9,0,0,1,378.66,14c11.6,0,19.86,8.72,19.86,23.48S390.26,61,378.66,61a17.58,17.58,0,0,1-14.38-7.33V77Zm21.25-54.37a14.55,14.55,0,0,0-11.51,6V46.36a14.82,14.82,0,0,0,11.51,6c7.7,0,12.62-6.22,12.62-14.94S383.49,22.61,375.79,22.61Z"/><path class="cls-1" d="M427.92,14C441.37,14,450,24.28,450,38.39v2.32H415.39c.74,6.77,5.85,12.33,14.29,12.33,4.36,0,9.56-1.76,12.71-4.91l4.46,6.4C442.39,58.8,435.8,61,428.66,61c-13.45,0-23.47-9.37-23.47-23.56C405.19,24.47,414.65,14,427.92,14ZM415.3,33.84h25.24C440.35,28.55,436.73,22,427.92,22,419.57,22,415.76,28.36,415.3,33.84Z"/><path class="cls-2" d="M32.48,0,0,18.75V56.26L32.48,75,65,56.26V18.75ZM55.64,50.88,32.48,64.25,9.32,50.88h0V24.13h0L32.48,10.76,55.64,24.13h0V50.88Z"/></svg>